<?xml version="1.0" encoding="UTF-8" standalone="no"?>
<!-- Generator: Adobe Illustrator 19.1.0, SVG Export Plug-In . SVG Version: 6.00 Build 0)  -->

<svg
   version="1.1"
   id="Layer_1"
   x="0px"
   y="0px"
   viewBox="0 0 32 32"
   xml:space="preserve"
   sodipodi:docname="ORCID_iD.svg"
   width="32"
   height="32"
   inkscape:version="1.3 (0e150ed, 2023-07-21)"
   xmlns:inkscape="http://www.inkscape.org/namespaces/inkscape"
   xmlns:sodipodi="http://sodipodi.sourceforge.net/DTD/sodipodi-0.dtd"
   xmlns="http://www.w3.org/2000/svg"
   xmlns:svg="http://www.w3.org/2000/svg"><defs
   id="defs4" /><sodipodi:namedview
   id="namedview4"
   pagecolor="#ffffff"
   bordercolor="#999999"
   borderopacity="1"
   inkscape:showpageshadow="2"
   inkscape:pageopacity="0"
   inkscape:pagecheckerboard="0"
   inkscape:deskcolor="#d1d1d1"
   inkscape:zoom="5.8248599"
   inkscape:cx="46.181368"
   inkscape:cy="14.592626"
   inkscape:window-width="1312"
   inkscape:window-height="449"
   inkscape:window-x="157"
   inkscape:window-y="415"
   inkscape:window-maximized="0"
   inkscape:current-layer="Layer_1" />&#10;<style
   type="text/css"
   id="style1">&#10;	.st0{fill:#A6CE39;}&#10;	.st1{fill:#FFFFFF;}&#10;</style>&#10;<path
   id="path1"
   style="fill:#6f7987;fill-opacity:1;stroke-width:0.0943638"
   class="st0"
   d="M 15.951172 4 C 9.3504075 4 4 9.4640395 4 16.207031 C 4 22.950026 9.3504075 28.416016 15.951172 28.416016 C 22.551935 28.416016 27.900391 22.950026 27.900391 16.207031 C 27.900391 9.4640395 22.551935 4 15.951172 4 z M 11.337891 8.453125 C 11.860724 8.453125 12.28125 8.8934068 12.28125 9.4179688 C 12.28125 9.9425307 11.860724 10.380859 11.337891 10.380859 C 10.815057 10.380859 10.394531 9.9425307 10.394531 9.4179688 C 10.394531 8.8838693 10.815057 8.453125 11.337891 8.453125 z M 10.619141 11.544922 L 12.056641 11.544922 L 12.056641 16.160156 L 12.056641 21.759766 L 10.619141 21.759766 L 10.619141 11.544922 z M 14.167969 11.544922 L 18.050781 11.544922 C 21.747957 11.544922 23.373047 14.243269 23.373047 16.65625 C 23.373047 19.279054 21.366027 21.767578 18.070312 21.767578 L 14.167969 21.767578 L 14.167969 11.544922 z M 15.605469 12.869141 L 15.605469 20.443359 L 17.892578 20.443359 C 21.150947 20.443359 21.898438 17.915197 21.898438 16.65625 C 21.898437 14.605694 20.619251 12.869141 17.818359 12.869141 L 15.605469 12.869141 z " />&#10;<g
   id="g4"
   transform="matrix(0.09336328,0,0,0.095375,4,4)"
   style="fill:#75ffff;fill-opacity:1">&#10;	&#10;	&#10;	&#10;</g>&#10;</svg>
