<?xml version="1.0" encoding="UTF-8" standalone="no"?>
<!-- Creator: CorelDRAW -->

<svg
   xml:space="preserve"
   width="32px"
   height="32px"
   version="1.1"
   style="shape-rendering:geometricPrecision; text-rendering:geometricPrecision; image-rendering:optimizeQuality; fill-rule:evenodd; clip-rule:evenodd"
   viewBox="0 0 32 32"
   id="svg2"
   sodipodi:docname="ResearchGate_icon.svg"
   inkscape:version="1.3 (0e150ed, 2023-07-21)"
   xmlns:inkscape="http://www.inkscape.org/namespaces/inkscape"
   xmlns:sodipodi="http://sodipodi.sourceforge.net/DTD/sodipodi-0.dtd"
   xmlns="http://www.w3.org/2000/svg"
   xmlns:svg="http://www.w3.org/2000/svg"><sodipodi:namedview
   id="namedview2"
   pagecolor="#ffffff"
   bordercolor="#999999"
   borderopacity="1"
   inkscape:showpageshadow="2"
   inkscape:pageopacity="0"
   inkscape:pagecheckerboard="0"
   inkscape:deskcolor="#d1d1d1"
   inkscape:zoom="8.642075"
   inkscape:cx="15.216253"
   inkscape:cy="12.728425"
   inkscape:window-width="1312"
   inkscape:window-height="449"
   inkscape:window-x="140"
   inkscape:window-y="521"
   inkscape:window-maximized="0"
   inkscape:current-layer="Capa_x0020_1" />&#10; <defs
   id="defs1">&#10;  <style
   type="text/css"
   id="style1">&#10;   <![CDATA[
    .fil0 {fill:#04D4AC;fill-rule:nonzero}
    .fil1 {fill:white;fill-rule:nonzero}
   ]]>&#10;  </style>&#10; </defs>&#10; <g
   id="Capa_x0020_1"
   inkscape:label="Capa 1">&#10;  <metadata
   id="CorelCorpID_0Corel-Layer" />&#10;  <path
   id="path1"
   style="fill:#6f7987;fill-opacity:1;stroke-width:0.753721"
   class="fil0"
   d="M 15.95,4 C 9.3482285,4 4,9.4689597 4,16.208744 4,22.948528 9.3482285,28.416 15.95,28.416 22.544312,28.416 27.9,22.948528 27.9,16.208744 27.9,9.4689597 22.544312,4 15.95,4 Z m 3.686114,5.2491053 c 0.62605,-6.756e-4 1.262486,0.2196627 1.595372,0.6485152 0.268547,0.3427015 0.246227,0.4494985 -0.126755,0.5637325 -0.290926,0.099 -0.290927,0.09864 -0.559473,-0.175516 -0.63407,-0.6244777 -1.730696,-0.3967238 -1.924647,0.410528 -0.09698,0.357933 -0.08969,1.873555 0.0073,2.216256 0.261087,0.96718 1.835306,0.96718 2.103853,0 0.164111,-0.616862 0.12623,-0.662497 -0.597355,-0.700575 -0.350602,-0.01523 -0.349671,-0.01535 -0.349671,-0.312358 0,-0.289392 -6.4e-4,-0.289512 0.83484,-0.312358 1.081647,-0.02285 1.066263,-0.03677 1.014045,0.770483 -0.06714,1.012873 -0.334461,1.499974 -0.98345,1.789367 -0.425199,0.182774 -1.007926,0.250362 -1.455504,0.166591 -1.156244,-0.220852 -1.537036,-0.944097 -1.477359,-2.8023 0.02984,-1.028103 0.111836,-1.309346 0.499738,-1.7358189 0.321696,-0.3534107 0.866683,-0.5259506 1.419081,-0.5265468 z m -7.175537,3.0075637 c 2.14846,-0.01187 2.670844,0.144161 3.375781,0.78387 0.842936,0.769173 0.962759,1.941859 0.291391,2.924268 -0.298384,0.441703 -0.895391,0.913633 -1.357888,1.088791 -0.21633,0.08377 -0.394837,0.176291 -0.394837,0.206751 0,0.09139 0.686463,1.088198 1.111663,1.621289 1.133863,1.408881 1.745148,1.957981 2.379218,2.125523 0.39536,0.106618 0.50673,0.219961 0.394837,0.417965 -0.119354,0.20562 -0.714962,0.251789 -1.416167,0.107095 -1.066728,-0.213237 -1.701676,-0.845396 -3.320416,-3.297611 -0.537093,-0.822483 -0.537036,-0.823138 -1.059211,-0.861216 -0.768342,-0.05331 -0.708608,-0.189255 -0.68623,1.539479 0.02984,1.96482 0.0075,1.918773 1.118947,2.109162 0.290926,0.04569 0.313247,0.06878 0.313247,0.243937 0,0.198005 6.37e-4,0.19747 -1.953786,0.212701 -1.8350683,0.01523 -1.9543682,0.0072 -1.9916662,-0.107094 -0.074596,-0.220852 0.037182,-0.326935 0.4400024,-0.403091 0.4550378,-0.08377 0.6935718,-0.273626 0.7532488,-0.593481 0.02984,-0.121849 0.03677,-1.767415 0.02185,-3.656078 -0.02238,-3.967716 0.02262,-3.731163 -0.6935094,-3.891091 -0.4475777,-0.099 -0.5885541,-0.205443 -0.5288771,-0.388217 0.044758,-0.121848 0.141679,-0.13 2.1781575,-0.168078 0.378576,-0.0076 0.717321,-0.01317 1.024245,-0.01487 z m 0.332187,0.722886 c -0.99213,0 -0.991841,4.2e-4 -1.00676,1.759618 -0.01492,0.967177 -0.0078,1.804657 0.01457,1.85035 0.06714,0.159928 1.74678,0.07568 2.186899,-0.107094 1.491927,-0.624477 1.60382,-2.717934 0.186492,-3.334796 -0.365523,-0.159927 -0.463666,-0.168078 -1.381201,-0.168078 z" />&#10;  &#10; </g>&#10;</svg>
